<?xml version="1.0" encoding="UTF-8"?>
<svg id="Layer_1" data-name="Layer 1" xmlns="http://www.w3.org/2000/svg" viewBox="0 0 76.99 37.87">
  <defs>
    <style>
      .cls-1 {
        fill: #008b5d;
      }
    </style>
  </defs>
  <path id="wjo_logo" data-name="wjo logo" class="cls-1" d="M4.39.04l10.28,28.79,5.43-13.93L14.85.04h4.35l3.25,8.87L25.92.04h2.2l-4.54,12.05,5.69,15.9.4.83L40.99.04h2.15l-10.72,28.26h4.04c.11,5.97,6.67,9.33,11.33,5.31-3.14-2.81-5.39-6.57-6.21-10.73C39.06,10.04,49.55-2.57,62.98.45c13.01,2.92,17.97,19.13,10.55,29.72-5.49,7.83-15.95,10.07-24.02,4.73-1.72,1.79-4.15,2.67-6.59,2.87-4.76.39-8.7-1.26-10.42-5.92-.25-.68-.34-1.42-.57-2.06-.03-.08,0-.2-.13-.18l-3.09,8.24h-.51l-7.04-19.65-7.46,19.61-.48.06L0,.04h4.39ZM50.8,33.03c7.9,4.74,17.09.73,20.42-7.45,2.69-6.62,1.15-14.59-4.26-19.35-4.22-3.72-10.53-4.64-15.45-1.74v24.74c-.1.94-.16,1.77-.39,2.69-.06.24-.41.97-.32,1.11ZM49.56,5.83c-.38.12-.84.55-1.14.83-3.91,3.67-5.64,9.46-4.91,14.73.55,3.95,2.5,7.77,5.57,10.33.15-.33.29-.69.36-1.05.03-.14.13-.66.13-.75V5.83h-.01Z"/>
</svg>