<?xml version="1.0" encoding="UTF-8"?>
<svg id="Layer_2" data-name="Layer 2" xmlns="http://www.w3.org/2000/svg" viewBox="0 0 120 39.99">
  <defs>
    <style>
      .cls-1 {
        fill: #f2f2f2;
      }

      .cls-2 {
        isolation: isolate;
      }
    </style>
  </defs>
  <g class="cls-2">
    <g class="cls-2">
      <path class="cls-1" d="M1.15,9.34v-.36c0-1.22.06-2.24.18-3.07.12-.83.33-1.5.62-2.02.29-.52.69-.92,1.19-1.19.5-.27,1.14-.46,1.9-.56.76-.1,1.68-.15,2.76-.15h3.37c1.41,0,2.55.05,3.43.16.88.11,1.56.31,2.03.62.47.3.8.75.98,1.33.18.58.27,1.34.27,2.29h-1.72c0-.71-.06-1.26-.19-1.66-.13-.4-.36-.68-.71-.86-.35-.18-.85-.28-1.51-.33s-1.52-.06-2.59-.06h-3.37c-.85,0-1.57.03-2.16.08-.58.05-1.06.17-1.43.35-.37.18-.65.47-.84.86-.19.39-.33.93-.4,1.61-.07.68-.11,1.55-.11,2.6v.36c0,1.01.04,1.86.11,2.52.07.67.2,1.2.4,1.6.19.4.47.7.84.89.37.2.84.33,1.43.38.58.06,1.3.09,2.16.09h3.97c.98,0,1.78-.04,2.38-.12.6-.08,1.06-.25,1.37-.52.31-.27.52-.67.63-1.22s.16-1.28.16-2.21v-.53h-6.58v-1.43h8.3v1.96c0,1.16-.1,2.11-.3,2.84-.2.73-.53,1.29-1,1.69-.47.4-1.11.67-1.92.81-.81.15-1.83.22-3.06.22h-3.97c-1.34,0-2.45-.09-3.31-.27-.87-.18-1.54-.52-2.03-1.01-.49-.49-.83-1.19-1.02-2.11s-.29-2.12-.29-3.59Z"/>
      <path class="cls-1" d="M26.07,16.24c-1.24,0-2.25-.06-3.06-.19-.8-.13-1.4-.41-1.79-.85-.39-.43-.59-1.11-.59-2.03s.18-1.62.55-2.06c.37-.44.95-.72,1.75-.86.8-.13,1.84-.2,3.14-.2,1.05,0,1.93.02,2.64.07s1.35.13,1.91.25c-.01-.79-.07-1.42-.16-1.88-.1-.46-.27-.79-.54-1.02-.26-.22-.65-.36-1.15-.42-.5-.06-1.17-.09-2.01-.09-.95,0-1.7.02-2.24.06-.54.04-.93.12-1.18.22s-.4.26-.46.47c-.06.2-.09.46-.09.79h-1.72c0-.64.09-1.16.26-1.56.18-.39.48-.69.9-.89s1-.34,1.74-.41c.74-.07,1.67-.11,2.79-.11,1.21,0,2.18.08,2.91.23.74.16,1.3.43,1.68.84.38.4.64.96.78,1.69.13.72.2,1.65.2,2.79v4.96h-1.72v-.71c-.2.21-.48.39-.84.52-.36.13-.83.23-1.43.29-.59.06-1.35.09-2.28.09ZM26.07,14.84c1.02,0,1.83-.01,2.44-.04.61-.02,1.06-.09,1.36-.2s.5-.28.6-.52c.1-.24.14-.57.14-1v-1.58l-4.55-.05c-.81-.01-1.45,0-1.95.03-.49.03-.87.1-1.12.21-.26.11-.43.28-.51.52-.09.24-.13.55-.13.95s.04.7.13.92c.09.23.26.39.51.5.26.11.63.18,1.12.21.49.03,1.14.04,1.95.04Z"/>
      <path class="cls-1" d="M39.41,16.04l-5.39-10.31h2.02l4.51,9.02h.02l4.6-9.02h1.92l-5.39,10.31h-2.29Z"/>
      <path class="cls-1" d="M48.81,4.01v-1.72h1.72v1.72h-1.72ZM48.81,16.04V6.3h1.72v9.74h-1.72Z"/>
      <path class="cls-1" d="M52.85,16.04V5.73h1.72v1.37c.26-.35.57-.64.95-.87s.89-.41,1.52-.52c.64-.12,1.47-.17,2.5-.17,1.35,0,2.41.13,3.19.39.78.26,1.33.73,1.66,1.4.33.67.49,1.63.49,2.86v5.84h-1.73v-5.84c0-.7-.06-1.27-.18-1.7s-.32-.75-.61-.98c-.29-.22-.69-.37-1.2-.44-.51-.07-1.15-.11-1.93-.11-1.19,0-2.13.1-2.81.29-.68.2-1.16.51-1.44.93-.28.42-.42.97-.42,1.64v6.21h-1.72Z"/>
    </g>
  </g>
  <g class="cls-2">
    <g class="cls-2">
      <path class="cls-1" d="M32.75,34.84l-6.76-13.75h1.98l5.93,12.29,5.58-12.29h2l5.58,12.29,5.35-12.29h1.98l-6.18,13.75h-2.29l-5.44-12.02-5.44,12.02h-2.29Z"/>
    </g>
    <g class="cls-2">
      <path class="cls-1" d="M59.38,35.04c-1.24,0-2.25-.06-3.06-.19-.8-.13-1.4-.41-1.79-.85-.39-.43-.59-1.11-.59-2.03s.18-1.62.55-2.06c.37-.44.95-.72,1.75-.86.8-.13,1.84-.2,3.14-.2,1.05,0,1.93.02,2.64.07s1.35.13,1.91.25c-.01-.79-.07-1.42-.16-1.88-.1-.46-.27-.79-.54-1.02-.26-.22-.65-.36-1.15-.42-.5-.06-1.17-.09-2.01-.09-.95,0-1.7.02-2.24.06-.54.04-.93.12-1.18.22s-.4.26-.46.47c-.06.2-.09.46-.09.79h-1.72c0-.64.09-1.16.26-1.56.18-.39.48-.69.9-.89s1-.34,1.74-.41c.74-.07,1.67-.11,2.79-.11,1.21,0,2.18.08,2.91.23.74.16,1.3.43,1.68.84.38.4.64.96.78,1.69.13.72.2,1.65.2,2.79v4.96h-1.72v-.71c-.2.21-.48.39-.84.52-.36.13-.83.23-1.43.29-.59.06-1.35.09-2.28.09ZM59.38,33.64c1.02,0,1.83-.01,2.44-.04.61-.02,1.06-.09,1.36-.2s.5-.28.6-.52c.1-.24.14-.57.14-1v-1.58l-4.55-.05c-.81-.01-1.45,0-1.95.03-.49.03-.87.1-1.12.21-.26.11-.43.28-.51.52-.09.24-.13.55-.13.95s.04.7.13.92c.09.23.26.39.51.5.26.11.63.18,1.12.21.49.03,1.14.04,1.95.04Z"/>
      <path class="cls-1" d="M68.47,34.84v-13.75h1.72v13.75h-1.72Z"/>
    </g>
    <g class="cls-2">
      <path class="cls-1" d="M77.82,34.84c-1.05,0-1.89-.11-2.52-.32s-1.09-.59-1.37-1.13c-.28-.54-.42-1.3-.42-2.28v-9.41h1.72v2.82h6.35v1.41h-6.35v5.17c0,.67.06,1.17.18,1.5.12.33.37.54.74.64s.93.15,1.68.15c.66,0,1.18-.02,1.56-.06.38-.04.66-.15.84-.33.18-.18.29-.48.34-.9.05-.42.07-1.01.07-1.76h1.52c0,.99-.06,1.78-.18,2.38-.12.6-.34,1.05-.65,1.35s-.75.51-1.32.61c-.56.1-1.29.15-2.18.15Z"/>
    </g>
    <g class="cls-2">
      <path class="cls-1" d="M95.88,31.78c0,.77-.12,1.38-.34,1.82-.23.44-.58.76-1.05.97s-1.07.33-1.8.39c-.73.06-1.6.08-2.61.08-1.15,0-2.13-.06-2.93-.17-.8-.12-1.45-.36-1.94-.72-.49-.36-.85-.9-1.07-1.62-.22-.72-.34-1.69-.34-2.89s.11-2.11.33-2.81.57-1.24,1.06-1.59c.49-.36,1.13-.6,1.93-.72.8-.12,1.77-.18,2.92-.18,1.32,0,2.41.09,3.28.28.87.19,1.51.54,1.94,1.06.43.52.64,1.28.64,2.28v2.21h-10.36c0,.76.06,1.38.16,1.83.1.46.3.8.61,1.04.3.23.76.39,1.36.46.61.07,1.41.11,2.42.11.91,0,1.64-.02,2.2-.05.56-.04.98-.11,1.27-.24.29-.12.48-.31.59-.55.1-.25.15-.57.15-.98h1.6ZM90.03,25.76c-.97,0-1.76.04-2.35.11-.59.07-1.05.21-1.36.42s-.52.51-.63.92c-.11.41-.17.94-.17,1.6h8.72v-.86c0-.43-.05-.79-.15-1.07-.1-.28-.29-.51-.58-.67-.29-.16-.71-.28-1.27-.34-.56-.07-1.3-.1-2.21-.1Z"/>
      <path class="cls-1" d="M98.28,34.84v-10.31h1.72v1.42c.19-.3.38-.56.58-.76s.45-.36.76-.48c.31-.12.74-.2,1.28-.25.54-.05,1.24-.08,2.12-.08v1.44c-1.18,0-2.1.04-2.74.12-.65.08-1.11.23-1.39.42-.28.2-.45.48-.51.83-.06.35-.09.8-.09,1.34v6.3h-1.72Z"/>
      <path class="cls-1" d="M112.75,35.04c-1.25,0-2.26-.04-3.02-.13-.76-.08-1.34-.24-1.73-.46-.39-.23-.65-.55-.79-.97s-.2-.96-.2-1.63h1.65c0,.38.03.68.08.91s.21.41.46.53.66.21,1.22.25c.56.04,1.36.07,2.38.07,1.08,0,1.92-.02,2.52-.07.6-.04,1.03-.13,1.29-.25s.42-.3.48-.53c.06-.23.08-.54.08-.92,0-.47-.04-.81-.13-1.05-.08-.23-.28-.39-.59-.47-.31-.08-.81-.12-1.49-.13l-4.1-.04c-1.06-.01-1.86-.1-2.42-.27-.56-.17-.93-.46-1.14-.88-.2-.42-.3-1.02-.3-1.79,0-.72.11-1.28.34-1.67s.57-.67,1.05-.84c.48-.17,1.1-.27,1.86-.3.76-.03,1.69-.05,2.77-.05,1.27,0,2.28.04,3.03.12.75.08,1.31.22,1.68.44.37.21.62.53.73.93.12.41.17.94.17,1.6h-1.65c0-.39-.03-.69-.08-.92s-.2-.39-.43-.49c-.24-.1-.62-.17-1.15-.2-.53-.03-1.27-.04-2.22-.04-1.09,0-1.93.01-2.53.04-.6.02-1.04.08-1.31.17-.27.09-.43.23-.49.43-.06.19-.09.46-.09.8s.02.62.06.82c.04.2.14.35.31.45.17.1.44.17.82.2.38.03.91.05,1.59.06l3.54.04c1.06.01,1.87.1,2.42.26.55.16.93.47,1.13.9s.3,1.07.3,1.9c0,.75-.11,1.33-.33,1.76s-.57.75-1.04.95c-.48.21-1.11.34-1.88.4s-1.73.09-2.85.09Z"/>
    </g>
  </g>
</svg>